<?xml version="1.0" encoding="UTF-8" standalone="no"?>
<!-- Generator: Adobe Illustrator 16.0.0, SVG Export Plug-In . SVG Version: 6.00 Build 0)  -->

<svg
   xmlns:dc="http://purl.org/dc/elements/1.1/"
   xmlns:cc="http://creativecommons.org/ns#"
   xmlns:rdf="http://www.w3.org/1999/02/22-rdf-syntax-ns#"
   xmlns:svg="http://www.w3.org/2000/svg"
   xmlns="http://www.w3.org/2000/svg"
   xmlns:sodipodi="http://sodipodi.sourceforge.net/DTD/sodipodi-0.dtd"
   xmlns:inkscape="http://www.inkscape.org/namespaces/inkscape"
   version="1.1"
   id="Layer_1"
   x="0px"
   y="0px"
   width="50px"
   height="50px"
   viewBox="0 0 50 50"
   enable-background="new 0 0 50 50"
   xml:space="preserve"
   inkscape:version="0.48.5 r10040"
   sodipodi:docname="video135.svg"><metadata
     id="metadata17"><rdf:RDF><cc:Work
         rdf:about=""><dc:format>image/svg+xml</dc:format><dc:type
           rdf:resource="http://purl.org/dc/dcmitype/StillImage" /><dc:title></dc:title></cc:Work></rdf:RDF></metadata><defs
     id="defs15" /><sodipodi:namedview
     pagecolor="#ffffff"
     bordercolor="#666666"
     borderopacity="1"
     objecttolerance="10"
     gridtolerance="10"
     guidetolerance="10"
     inkscape:pageopacity="0"
     inkscape:pageshadow="2"
     inkscape:window-width="640"
     inkscape:window-height="480"
     id="namedview13"
     showgrid="false"
     inkscape:zoom="4.72"
     inkscape:cx="41.949153"
     inkscape:cy="25"
     inkscape:window-x="0"
     inkscape:window-y="0"
     inkscape:window-maximized="0"
     inkscape:current-layer="g3" /><g
     id="g3"><rect
       y="41.43"
       width="11.412"
       height="1.698"
       id="rect5"
       style="fill:#ffffff" /><path
       d="M46.377,5.597H3.623C1.626,5.597,0,7.223,0,9.22v24.824c0,1.997,1.626,3.622,3.623,3.622h42.754   c1.997,0,3.623-1.625,3.623-3.622V9.22C50,7.223,48.374,5.597,46.377,5.597z M36.903,32.867c-3.404,0-6.805,0-10.206,0   l-1.408-2.814l0.955-0.949l-0.389-0.953h-1.711l-0.389,0.953l0.955,0.949l-1.408,2.814c-3.401,0-6.802,0-10.206,0V31.67   c0.315-0.299,0.692-0.536,1.095-0.753c0.686-0.363,1.36-0.741,2.059-1.073c0.679-0.323,1.379-0.603,2.07-0.894   c0.652-0.275,1.311-0.533,1.957-0.813c0.111-0.05,0.225-0.169,0.271-0.28c0.145-0.363,0.269-0.738,0.382-1.109   c0.084-0.284,0.143-0.564,0.506-0.641c0.093-0.017,0.206-0.176,0.221-0.283c0.071-0.543,0.128-1.09,0.167-1.641   c0.009-0.114-0.051-0.262-0.131-0.352c-0.48-0.537-0.744-1.158-0.855-1.869c-0.055-0.355-0.254-0.688-0.356-1.037   c-0.137-0.471-0.253-0.947-0.357-1.427c-0.041-0.171-0.018-0.357-0.048-0.534c-0.043-0.257-0.031-0.456,0.277-0.556   c0.086-0.027,0.155-0.231,0.159-0.356c0.015-0.763,0.008-1.527,0.012-2.292c0.003-0.47-0.002-0.94,0.031-1.406   c0.066-0.897,0.591-1.528,1.251-2.07c0.963-0.795,2.116-1.165,3.301-1.446c0.62-0.146,1.257-0.232,1.886-0.335   c0.169-0.03,0.344-0.005,0.52-0.005c0.027,0.043,0.055,0.086,0.086,0.131c-0.133,0.093-0.28,0.176-0.395,0.287   c-0.258,0.257-0.234,0.438,0.041,0.671c0.572,0.484,1.143,0.971,1.7,1.469c0.487,0.439,0.679,1.017,0.679,1.662   c0.001,1.111,0.001,2.223,0.001,3.335c-0.001,0.229-0.018,0.455,0.268,0.556c0.058,0.021,0.123,0.146,0.118,0.218   c-0.049,0.57-0.111,1.135-0.171,1.705c0,0.024-0.007,0.05-0.019,0.064c-0.51,0.748-0.576,1.662-0.942,2.465   c-0.013,0.03-0.023,0.068-0.043,0.092c-0.68,0.797-0.468,1.76-0.482,2.677c-0.002,0.093,0.066,0.238,0.141,0.271   c0.277,0.121,0.345,0.357,0.423,0.609c0.121,0.396,0.237,0.793,0.408,1.169c0.064,0.14,0.249,0.259,0.404,0.317   c2.089,0.801,4.148,1.648,6.143,2.67c0.398,0.203,0.741,0.453,1.032,0.755V32.867z"
       id="path7"
       style="fill:#ffffff" /><rect
       x="18.206"
       y="41.43"
       width="31.794"
       height="1.698"
       id="rect9"
       style="fill:#ffffff" /><rect
       x="13.11"
       y="40.156"
       width="3.397"
       height="4.246"
       id="rect11"
       style="fill:#ffffff" /></g></svg>