<?xml version="1.0" encoding="utf-8"?>
<!-- Generator: Adobe Illustrator 16.0.4, SVG Export Plug-In . SVG Version: 6.00 Build 0)  -->
<!DOCTYPE svg PUBLIC "-//W3C//DTD SVG 1.1//EN" "http://www.w3.org/Graphics/SVG/1.1/DTD/svg11.dtd">
<svg version="1.1" id="Capa_1" xmlns="http://www.w3.org/2000/svg" xmlns:xlink="http://www.w3.org/1999/xlink" x="0px" y="0px"
	 width="23.992px" height="21.064px" viewBox="0 0 23.992 21.064" enable-background="new 0 0 23.992 21.064" xml:space="preserve">
<path d="M23.992,9.051v11.604v0.41h-6.697h-2.751H7.731v-0.41v-5.865l4.734-5.738h2.079v11.604h2.751V9.051H23.992z M8.453,13.113
	l-4.352,5.243l-2.923-2.431l4.017-4.838c-0.61,0.152-1.388,0.182-2.213,0.045c-1.781-0.29-3.111-1.219-2.972-2.078
	C0.035,8.905,0.1,8.771,0.2,8.649c0.49-0.588,1.814-0.864,3.29-0.625C3.986,8.105,4.441,8.24,4.846,8.406
	C4.609,8.04,4.394,7.614,4.221,7.143c-0.507-1.409-0.48-2.76,0.009-3.35c0.102-0.122,0.222-0.211,0.363-0.261
	c0.818-0.296,1.978,0.84,2.592,2.537c0.283,0.787,0.4,1.554,0.363,2.182l4.017-4.838l2.925,2.428l-4.278,5.151L7.254,8.539
	l-1.758,2.119L8.453,13.113z M5.064,6.838c0.141,0.386,0.32,0.75,0.535,1.081l0.552,0.854l0.372,0.045
	C6.677,8.572,6.8,7.641,6.343,6.375c-0.474-1.308-1.182-1.918-1.44-1.986C4.729,4.642,4.607,5.573,5.064,6.838z M5.556,9.966
	L5.437,9.613L4.509,9.235C4.138,9.084,3.748,8.973,3.347,8.909C2.02,8.691,1.126,8.985,0.908,9.201
	c0.115,0.242,0.846,0.824,2.219,1.049C4.436,10.463,5.323,10.182,5.556,9.966z M20.209,6.455c0.123-0.172,0.335-0.262,0.52-0.262
	c0.019,0,0.037,0.001,0.055,0.002C21,6.219,21.148,6.29,21.243,6.416c0.094,0.123,0.124,0.291,0.089,0.5
	c-0.083,0.507-1.016,1.326-1.057,1.359c-0.017,0.015-0.039,0.022-0.062,0.022s-0.045-0.007-0.062-0.021
	c-0.041-0.034-0.982-0.852-1.066-1.36c-0.033-0.209-0.003-0.377,0.091-0.5c0.095-0.126,0.246-0.198,0.462-0.221
	c0.016-0.001,0.035-0.002,0.053-0.002C19.876,6.193,20.085,6.283,20.209,6.455z M20.678,6.376C21.162,6.449,21.2,6.994,21.2,6.994
	C21.262,6.292,20.678,6.376,20.678,6.376z M15.633,6.876c0.083-0.109,0.219-0.172,0.407-0.192c0.015,0,0.03-0.002,0.047-0.002
	c0.165,0,0.351,0.078,0.46,0.229c0.107-0.151,0.295-0.229,0.46-0.229c0.015,0,0.031,0.002,0.046,0.002
	c0.191,0.02,0.324,0.083,0.408,0.192s0.109,0.259,0.08,0.444c-0.074,0.449-0.9,1.172-0.934,1.201
	c-0.019,0.014-0.037,0.02-0.059,0.02c-0.02,0-0.04-0.005-0.056-0.018c-0.034-0.031-0.868-0.754-0.941-1.203
	C15.521,7.135,15.548,6.985,15.633,6.876z M16.961,6.843c0.43,0.065,0.461,0.549,0.461,0.549
	C17.477,6.766,16.961,6.843,16.961,6.843z M16.628,2.861c-0.058-0.347-0.007-0.63,0.149-0.835c0.158-0.207,0.412-0.328,0.77-0.365
	c0.029-0.004,0.061-0.005,0.092-0.005c0.309,0,0.66,0.151,0.866,0.434c0.204-0.283,0.558-0.434,0.868-0.434
	c0.029,0,0.061,0.001,0.09,0.005c0.357,0.037,0.61,0.158,0.768,0.365c0.158,0.205,0.209,0.488,0.151,0.835
	c-0.14,0.852-1.698,2.213-1.765,2.271c-0.03,0.026-0.069,0.04-0.107,0.04c-0.037,0-0.074-0.014-0.105-0.04
	C18.338,5.074,16.768,3.713,16.628,2.861z M19.286,1.963c0.81,0.121,0.868,1.031,0.868,1.031
	C20.258,1.821,19.287,1.963,19.286,1.963z M14.297,1.606c0-0.037-0.029-0.067-0.066-0.067s-0.067,0.03-0.067,0.067
	s0.03,0.066,0.067,0.066S14.297,1.643,14.297,1.606z M15.734,1.582h-1.332v0.046h1.332V1.582z M14.208,3.066h0.045V1.734h-0.045
	V3.066z M14.253,0.084h-0.045v1.329h0.045V0.084z M14.087,1.718l-0.942,0.939l0.033,0.034l0.943-0.939L14.087,1.718z M15.316,2.658
	l-0.939-0.94l-0.033,0.033l0.939,0.939L15.316,2.658z M14.066,1.607h-1.33v0.046h1.33V1.607z M15.296,0.603l-0.034-0.032
	l-0.92,0.962l0.034,0.032L15.296,0.603z M15.061,0.026l-0.04-0.022L14.375,1.17l0.039,0.022L15.061,0.026z M14.123,1.198
	l-0.629-1.173l-0.041,0.021l0.63,1.172L14.123,1.198z M13.806,1.432l-1.274-0.386l-0.013,0.044l1.274,0.386L13.806,1.432z
	 M15.884,2.132l-1.274-0.384l-0.014,0.044l1.275,0.384L15.884,2.132z M14.713,1.46l1.174-0.63l-0.021-0.039l-1.174,0.63L14.713,1.46
	z M12.634,2.423l1.174-0.63l-0.022-0.041l-1.173,0.63L12.634,2.423z M13.654,3.313l0.423-1.261l-0.044-0.015l-0.424,1.261
	L13.654,3.313z M14.777,3.318l0.045-0.014l-0.396-1.271l-0.044,0.014L14.777,3.318z M14.117,1.524l-0.94-0.941l-0.032,0.032
	l0.94,0.941L14.117,1.524z M21.882,3.91c0-0.019-0.015-0.033-0.032-0.033c-0.02,0-0.033,0.015-0.033,0.033s0.014,0.033,0.033,0.033
	C21.867,3.943,21.882,3.928,21.882,3.91z M22.594,3.898h-0.658v0.022h0.658V3.898z M21.839,4.633h0.021V3.975h-0.021V4.633z
	 M21.859,3.156h-0.021v0.659h0.021V3.156z M21.775,3.966L21.31,4.43l0.016,0.016l0.466-0.465L21.775,3.966z M22.387,4.43
	l-0.465-0.466L21.906,3.98l0.465,0.466L22.387,4.43z M21.768,3.911h-0.66v0.021h0.66V3.911z M22.381,3.418l-0.016-0.015
	l-0.467,0.466l0.016,0.016L22.381,3.418z M22.277,3.138l-0.021-0.013l-0.354,0.558l0.021,0.013L22.277,3.138z M21.795,3.708
	l-0.311-0.581l-0.021,0.011l0.312,0.581L21.795,3.708z M21.637,3.823l-0.63-0.191L21,3.654l0.629,0.191L21.637,3.823z M22.67,4.172
	l-0.633-0.192l-0.008,0.022l0.633,0.192L22.67,4.172z M22.088,3.837l0.582-0.311l-0.012-0.022l-0.582,0.311L22.088,3.837z
	 M21.058,4.314l0.582-0.312l-0.011-0.021l-0.582,0.312L21.058,4.314z M21.562,4.755l0.211-0.624l-0.021-0.008l-0.21,0.625
	L21.562,4.755z M22.118,4.759l0.022-0.007l-0.192-0.631l-0.022,0.007L22.118,4.759z M21.793,3.869l-0.467-0.466l-0.016,0.016
	l0.467,0.466L21.793,3.869z"/>
</svg>
